<svg width="720" height="720" viewBox="0 0 720 720" fill="none" xmlns="http://www.w3.org/2000/svg">
<path d="M554.098 262.969C554.098 280.632 552.515 297.925 549.482 314.715C533.586 402.734 477.869 476.908 401.704 517.977V262.969H554.098Z" fill="black"/>
<path fill-rule="evenodd" clip-rule="evenodd" d="M554.098 262.974C554.098 280.638 552.515 297.93 549.482 314.721C533.586 402.739 477.869 476.914 401.704 517.982V162.394C401.704 78.2293 469.932 10 554.098 10V262.974Z" fill="#CDC733"/>
<path d="M318.394 454.99C318.394 472.654 316.811 489.947 313.779 506.737C297.882 594.755 242.165 668.93 166 709.997V454.99H318.394Z" fill="black"/>
<path fill-rule="evenodd" clip-rule="evenodd" d="M318.394 454.993C318.394 472.657 316.811 489.95 313.779 506.74C297.882 594.758 242.165 668.933 166 710V354.414C166 270.249 234.229 202.02 318.394 202.02V454.993Z" fill="#CDC733"/>
<path d="M242.197 162.394C284.28 162.394 318.394 128.28 318.394 86.1972C318.394 44.1146 284.28 10 242.197 10C200.115 10 166 44.1146 166 86.1972C166 128.28 200.115 162.394 242.197 162.394Z" fill="white"/>
</svg>
